<?xml version="1.0" encoding="UTF-8" standalone="no"?>
<!DOCTYPE svg PUBLIC "-//W3C//DTD SVG 1.1//EN"
 "http://www.w3.org/Graphics/SVG/1.1/DTD/svg11.dtd">
<!-- Generated by graphviz version 2.38.0 (20140413.2041)
 -->
<!-- Title: %3 Pages: 1 -->
<svg width="352pt" height="621pt"
 viewBox="0.00 0.00 351.92 620.68" xmlns="http://www.w3.org/2000/svg" xmlns:xlink="http://www.w3.org/1999/xlink">
<g id="graph0" class="graph" transform="scale(1 1) rotate(0) translate(4 616.678)">
<title>%3</title>
<polygon fill="white" stroke="none" points="-4,4 -4,-616.678 347.923,-616.678 347.923,4 -4,4"/>
<!-- &#45;5300776722108939485 -->
<g id="node1" class="node"><title>&#45;5300776722108939485</title>
<polygon fill="none" stroke="black" points="159.385,-381.801 3.53848,-381.801 3.53848,-345.801 159.385,-345.801 159.385,-381.801"/>
<text text-anchor="middle" x="81.4615" y="-359.601" font-family="Times,serif" font-size="14.00">(&#39;cleaned_data&#39;, &#39;pool2&#39;)</text>
</g>
<!-- 2410200536988902493 -->
<g id="node5" class="node"><title>2410200536988902493</title>
<ellipse fill="none" stroke="black" cx="81.4615" cy="-479.239" rx="61.3761" ry="61.3761"/>
<text text-anchor="middle" x="81.4615" y="-475.039" font-family="Times,serif" font-size="14.00">analyze_data</text>
</g>
<!-- &#45;5300776722108939485&#45;&gt;2410200536988902493 -->
<g id="edge4" class="edge"><title>&#45;5300776722108939485&#45;&gt;2410200536988902493</title>
<path fill="none" stroke="black" d="M81.4615,-382.03C81.4615,-389.252 81.4615,-398.17 81.4615,-407.638"/>
<polygon fill="black" stroke="black" points="77.9616,-407.656 81.4615,-417.656 84.9616,-407.656 77.9616,-407.656"/>
</g>
<!-- 2538146433059717352 -->
<g id="node2" class="node"><title>2538146433059717352</title>
<ellipse fill="none" stroke="black" cx="81.4615" cy="-257.479" rx="52.1463" ry="52.1463"/>
<text text-anchor="middle" x="81.4615" y="-253.279" font-family="Times,serif" font-size="14.00">clean_data</text>
</g>
<!-- 2538146433059717352&#45;&gt;&#45;5300776722108939485 -->
<g id="edge1" class="edge"><title>2538146433059717352&#45;&gt;&#45;5300776722108939485</title>
<path fill="none" stroke="black" d="M81.4615,-310.029C81.4615,-318.682 81.4615,-327.357 81.4615,-335.102"/>
<polygon fill="black" stroke="black" points="77.9616,-335.333 81.4615,-345.333 84.9616,-335.333 77.9616,-335.333"/>
</g>
<!-- 5200419663265502364 -->
<g id="node3" class="node"><title>5200419663265502364</title>
<polygon fill="none" stroke="black" points="134.636,-169.156 28.2874,-169.156 28.2874,-133.156 134.636,-133.156 134.636,-169.156"/>
<text text-anchor="middle" x="81.4615" y="-146.956" font-family="Times,serif" font-size="14.00">(&#39;data&#39;, &#39;pool2&#39;)</text>
</g>
<!-- 5200419663265502364&#45;&gt;2538146433059717352 -->
<g id="edge2" class="edge"><title>5200419663265502364&#45;&gt;2538146433059717352</title>
<path fill="none" stroke="black" d="M81.4615,-169.383C81.4615,-176.608 81.4615,-185.487 81.4615,-194.786"/>
<polygon fill="black" stroke="black" points="77.9616,-194.981 81.4615,-204.981 84.9616,-194.981 77.9616,-194.981"/>
</g>
<!-- &#45;1443455424474306218 -->
<g id="node4" class="node"><title>&#45;1443455424474306218</title>
<polygon fill="none" stroke="black" points="162.885,-612.678 0.0384818,-612.678 0.0384818,-576.678 162.885,-576.678 162.885,-612.678"/>
<text text-anchor="middle" x="81.4615" y="-590.478" font-family="Times,serif" font-size="14.00">(&#39;analyzed_data&#39;, &#39;pool2&#39;)</text>
</g>
<!-- 2410200536988902493&#45;&gt;&#45;1443455424474306218 -->
<g id="edge3" class="edge"><title>2410200536988902493&#45;&gt;&#45;1443455424474306218</title>
<path fill="none" stroke="black" d="M81.4615,-540.944C81.4615,-549.823 81.4615,-558.572 81.4615,-566.313"/>
<polygon fill="black" stroke="black" points="77.9616,-566.495 81.4615,-576.495 84.9616,-566.495 77.9616,-566.495"/>
</g>
<!-- 5200419663266584889 -->
<g id="node6" class="node"><title>5200419663266584889</title>
<polygon fill="none" stroke="black" points="315.636,-169.156 209.287,-169.156 209.287,-133.156 315.636,-133.156 315.636,-169.156"/>
<text text-anchor="middle" x="262.462" y="-146.956" font-family="Times,serif" font-size="14.00">(&#39;data&#39;, &#39;pool1&#39;)</text>
</g>
<!-- 8835412057947564777 -->
<g id="node9" class="node"><title>8835412057947564777</title>
<ellipse fill="none" stroke="black" cx="262.462" cy="-257.479" rx="52.1463" ry="52.1463"/>
<text text-anchor="middle" x="262.462" y="-253.279" font-family="Times,serif" font-size="14.00">clean_data</text>
</g>
<!-- 5200419663266584889&#45;&gt;8835412057947564777 -->
<g id="edge7" class="edge"><title>5200419663266584889&#45;&gt;8835412057947564777</title>
<path fill="none" stroke="black" d="M262.462,-169.383C262.462,-176.608 262.462,-185.487 262.462,-194.786"/>
<polygon fill="black" stroke="black" points="258.962,-194.981 262.462,-204.981 265.962,-194.981 258.962,-194.981"/>
</g>
<!-- 1467703301102581010 -->
<g id="node7" class="node"><title>1467703301102581010</title>
<ellipse fill="none" stroke="black" cx="262.462" cy="-48.5779" rx="48.6559" ry="48.6559"/>
<text text-anchor="middle" x="262.462" y="-44.3779" font-family="Times,serif" font-size="14.00">load_data</text>
</g>
<!-- 1467703301102581010&#45;&gt;5200419663266584889 -->
<g id="edge5" class="edge"><title>1467703301102581010&#45;&gt;5200419663266584889</title>
<path fill="none" stroke="black" d="M262.462,-97.216C262.462,-106.013 262.462,-114.918 262.462,-122.851"/>
<polygon fill="black" stroke="black" points="258.962,-122.964 262.462,-132.964 265.962,-122.964 258.962,-122.964"/>
</g>
<!-- &#45;5300776722105691910 -->
<g id="node8" class="node"><title>&#45;5300776722105691910</title>
<polygon fill="none" stroke="black" points="340.385,-381.801 184.538,-381.801 184.538,-345.801 340.385,-345.801 340.385,-381.801"/>
<text text-anchor="middle" x="262.462" y="-359.601" font-family="Times,serif" font-size="14.00">(&#39;cleaned_data&#39;, &#39;pool1&#39;)</text>
</g>
<!-- 4308161845663928668 -->
<g id="node12" class="node"><title>4308161845663928668</title>
<ellipse fill="none" stroke="black" cx="262.462" cy="-479.239" rx="61.3761" ry="61.3761"/>
<text text-anchor="middle" x="262.462" y="-475.039" font-family="Times,serif" font-size="14.00">analyze_data</text>
</g>
<!-- &#45;5300776722105691910&#45;&gt;4308161845663928668 -->
<g id="edge10" class="edge"><title>&#45;5300776722105691910&#45;&gt;4308161845663928668</title>
<path fill="none" stroke="black" d="M262.462,-382.03C262.462,-389.252 262.462,-398.17 262.462,-407.638"/>
<polygon fill="black" stroke="black" points="258.962,-407.656 262.462,-417.656 265.962,-407.656 258.962,-407.656"/>
</g>
<!-- 8835412057947564777&#45;&gt;&#45;5300776722105691910 -->
<g id="edge6" class="edge"><title>8835412057947564777&#45;&gt;&#45;5300776722105691910</title>
<path fill="none" stroke="black" d="M262.462,-310.029C262.462,-318.682 262.462,-327.357 262.462,-335.102"/>
<polygon fill="black" stroke="black" points="258.962,-335.333 262.462,-345.333 265.962,-335.333 258.962,-335.333"/>
</g>
<!-- 1229595320426462135 -->
<g id="node10" class="node"><title>1229595320426462135</title>
<ellipse fill="none" stroke="black" cx="81.4615" cy="-48.5779" rx="48.6559" ry="48.6559"/>
<text text-anchor="middle" x="81.4615" y="-44.3779" font-family="Times,serif" font-size="14.00">load_data</text>
</g>
<!-- 1229595320426462135&#45;&gt;5200419663265502364 -->
<g id="edge8" class="edge"><title>1229595320426462135&#45;&gt;5200419663265502364</title>
<path fill="none" stroke="black" d="M81.4615,-97.216C81.4615,-106.013 81.4615,-114.918 81.4615,-122.851"/>
<polygon fill="black" stroke="black" points="77.9616,-122.964 81.4615,-132.964 84.9616,-122.964 77.9616,-122.964"/>
</g>
<!-- &#45;1443455424477553793 -->
<g id="node11" class="node"><title>&#45;1443455424477553793</title>
<polygon fill="none" stroke="black" points="343.885,-612.678 181.038,-612.678 181.038,-576.678 343.885,-576.678 343.885,-612.678"/>
<text text-anchor="middle" x="262.462" y="-590.478" font-family="Times,serif" font-size="14.00">(&#39;analyzed_data&#39;, &#39;pool1&#39;)</text>
</g>
<!-- 4308161845663928668&#45;&gt;&#45;1443455424477553793 -->
<g id="edge9" class="edge"><title>4308161845663928668&#45;&gt;&#45;1443455424477553793</title>
<path fill="none" stroke="black" d="M262.462,-540.944C262.462,-549.823 262.462,-558.572 262.462,-566.313"/>
<polygon fill="black" stroke="black" points="258.962,-566.495 262.462,-576.495 265.962,-566.495 258.962,-566.495"/>
</g>
</g>
</svg>
