<?xml version="1.0" encoding="UTF-8" standalone="no"?>
<!DOCTYPE svg PUBLIC "-//W3C//DTD SVG 1.1//EN"
 "http://www.w3.org/Graphics/SVG/1.1/DTD/svg11.dtd">
<!-- Generated by graphviz version 2.38.0 (20140413.2041)
 -->
<!-- Title: %3 Pages: 1 -->
<svg width="276pt" height="675pt"
 viewBox="0.00 0.00 275.50 675.37" xmlns="http://www.w3.org/2000/svg" xmlns:xlink="http://www.w3.org/1999/xlink">
<g id="graph0" class="graph" transform="scale(1 1) rotate(0) translate(4 671.367)">
<title>%3</title>
<polygon fill="white" stroke="none" points="-4,4 -4,-671.367 271.5,-671.367 271.5,4 -4,4"/>
<!-- 8302839576455506704 -->
<g id="node1" class="node"><title>8302839576455506704</title>
<polygon fill="none" stroke="black" points="228.786,-196.5 155.714,-196.5 155.714,-160.5 228.786,-160.5 228.786,-196.5"/>
<text text-anchor="middle" x="192.25" y="-174.3" font-family="Times,serif" font-size="14.00">key_data1</text>
</g>
<!-- &#45;6511657930570053112 -->
<g id="node6" class="node"><title>&#45;6511657930570053112</title>
<ellipse fill="none" stroke="black" cx="133.25" cy="-298.496" rx="65.9903" ry="65.9903"/>
<text text-anchor="middle" x="133.25" y="-294.296" font-family="Times,serif" font-size="14.00">clean_data(...)</text>
</g>
<!-- 8302839576455506704&#45;&gt;&#45;6511657930570053112 -->
<g id="edge5" class="edge"><title>8302839576455506704&#45;&gt;&#45;6511657930570053112</title>
<path fill="none" stroke="black" d="M183.671,-196.658C179.119,-205.762 173.198,-217.604 167.021,-229.956"/>
<polygon fill="black" stroke="black" points="163.836,-228.5 162.495,-239.009 170.097,-231.63 163.836,-228.5"/>
</g>
<!-- 2602785972972244883 -->
<g id="node2" class="node"><title>2602785972972244883</title>
<ellipse fill="none" stroke="black" cx="205.25" cy="-62.2502" rx="62.0014" ry="62.0014"/>
<text text-anchor="middle" x="205.25" y="-58.0502" font-family="Times,serif" font-size="14.00">load_data(...)</text>
</g>
<!-- 2602785972972244883&#45;&gt;8302839576455506704 -->
<g id="edge1" class="edge"><title>2602785972972244883&#45;&gt;8302839576455506704</title>
<path fill="none" stroke="black" d="M198.293,-124.389C197.264,-133.435 196.25,-142.346 195.356,-150.208"/>
<polygon fill="black" stroke="black" points="191.872,-149.863 194.219,-160.195 198.828,-150.655 191.872,-149.863"/>
</g>
<!-- &#45;197770856540928990 -->
<g id="node3" class="node"><title>&#45;197770856540928990</title>
<polygon fill="none" stroke="black" points="186.98,-667.367 79.5204,-667.367 79.5204,-631.367 186.98,-631.367 186.98,-667.367"/>
<text text-anchor="middle" x="133.25" y="-645.167" font-family="Times,serif" font-size="14.00">analyze_data&#45;#0</text>
</g>
<!-- 3939317514912389457 -->
<g id="node4" class="node"><title>3939317514912389457</title>
<ellipse fill="none" stroke="black" cx="133.25" cy="-533.929" rx="61.3761" ry="61.3761"/>
<text text-anchor="middle" x="133.25" y="-529.729" font-family="Times,serif" font-size="14.00">analyze_data</text>
</g>
<!-- 3939317514912389457&#45;&gt;&#45;197770856540928990 -->
<g id="edge2" class="edge"><title>3939317514912389457&#45;&gt;&#45;197770856540928990</title>
<path fill="none" stroke="black" d="M133.25,-595.633C133.25,-604.512 133.25,-613.261 133.25,-621.002"/>
<polygon fill="black" stroke="black" points="129.75,-621.184 133.25,-631.184 136.75,-621.184 129.75,-621.184"/>
</g>
<!-- 1301405446878381891 -->
<g id="node5" class="node"><title>1301405446878381891</title>
<polygon fill="none" stroke="black" points="177.819,-436.491 88.6814,-436.491 88.6814,-400.491 177.819,-400.491 177.819,-436.491"/>
<text text-anchor="middle" x="133.25" y="-414.291" font-family="Times,serif" font-size="14.00">cleaned_data</text>
</g>
<!-- 1301405446878381891&#45;&gt;3939317514912389457 -->
<g id="edge3" class="edge"><title>1301405446878381891&#45;&gt;3939317514912389457</title>
<path fill="none" stroke="black" d="M133.25,-436.719C133.25,-443.942 133.25,-452.86 133.25,-462.327"/>
<polygon fill="black" stroke="black" points="129.75,-462.345 133.25,-472.345 136.75,-462.345 129.75,-462.345"/>
</g>
<!-- &#45;6511657930570053112&#45;&gt;1301405446878381891 -->
<g id="edge4" class="edge"><title>&#45;6511657930570053112&#45;&gt;1301405446878381891</title>
<path fill="none" stroke="black" d="M133.25,-364.705C133.25,-373.689 133.25,-382.479 133.25,-390.229"/>
<polygon fill="black" stroke="black" points="129.75,-390.404 133.25,-400.404 136.75,-390.404 129.75,-390.404"/>
</g>
<!-- 8302839576455506707 -->
<g id="node7" class="node"><title>8302839576455506707</title>
<polygon fill="none" stroke="black" points="111.786,-196.5 38.7143,-196.5 38.7143,-160.5 111.786,-160.5 111.786,-196.5"/>
<text text-anchor="middle" x="75.2502" y="-174.3" font-family="Times,serif" font-size="14.00">key_data2</text>
</g>
<!-- 8302839576455506707&#45;&gt;&#45;6511657930570053112 -->
<g id="edge6" class="edge"><title>8302839576455506707&#45;&gt;&#45;6511657930570053112</title>
<path fill="none" stroke="black" d="M83.6839,-196.658C88.1588,-205.762 93.9797,-217.604 100.052,-229.956"/>
<polygon fill="black" stroke="black" points="96.949,-231.579 104.501,-239.009 103.231,-228.491 96.949,-231.579"/>
</g>
<!-- 2602786946457749208 -->
<g id="node8" class="node"><title>2602786946457749208</title>
<ellipse fill="none" stroke="black" cx="62.2502" cy="-62.2502" rx="62.0014" ry="62.0014"/>
<text text-anchor="middle" x="62.2502" y="-58.0502" font-family="Times,serif" font-size="14.00">load_data(...)</text>
</g>
<!-- 2602786946457749208&#45;&gt;8302839576455506707 -->
<g id="edge7" class="edge"><title>2602786946457749208&#45;&gt;8302839576455506707</title>
<path fill="none" stroke="black" d="M69.2069,-124.389C70.2362,-133.435 71.2501,-142.346 72.1447,-150.208"/>
<polygon fill="black" stroke="black" points="68.6729,-150.655 73.2811,-160.195 75.628,-149.863 68.6729,-150.655"/>
</g>
</g>
</svg>
