<?xml version="1.0" encoding="UTF-8" standalone="no"?>
<!DOCTYPE svg PUBLIC "-//W3C//DTD SVG 1.1//EN"
 "http://www.w3.org/Graphics/SVG/1.1/DTD/svg11.dtd">
<!-- Generated by graphviz version 2.38.0 (20140413.2041)
 -->
<!-- Title: %3 Pages: 1 -->
<svg width="254pt" height="643pt"
 viewBox="0.00 0.00 254.01 643.40" xmlns="http://www.w3.org/2000/svg" xmlns:xlink="http://www.w3.org/1999/xlink">
<g id="graph0" class="graph" transform="scale(1 1) rotate(0) translate(4 639.397)">
<title>%3</title>
<polygon fill="white" stroke="none" points="-4,4 -4,-639.397 250.011,-639.397 250.011,4 -4,4"/>
<!-- 8302839576455506704 -->
<g id="node1" class="node"><title>8302839576455506704</title>
<polygon fill="none" stroke="black" points="215.538,-186.011 142.473,-186.011 142.473,-150.011 215.538,-150.011 215.538,-186.011"/>
<text text-anchor="middle" x="179.006" y="-163.811" font-family="Times,serif" font-size="14.00">key_data1</text>
</g>
<!-- &#45;6511657930570053112 -->
<g id="node4" class="node"><title>&#45;6511657930570053112</title>
<ellipse fill="none" stroke="black" cx="123.006" cy="-282.446" rx="60.3686" ry="60.3686"/>
<text text-anchor="middle" x="123.006" y="-278.246" font-family="Times,serif" font-size="14.00">clean_data(...)</text>
</g>
<!-- 8302839576455506704&#45;&gt;&#45;6511657930570053112 -->
<g id="edge3" class="edge"><title>8302839576455506704&#45;&gt;&#45;6511657930570053112</title>
<path fill="none" stroke="black" d="M170.5,-186.088C166.014,-195.095 160.202,-206.764 154.192,-218.831"/>
<polygon fill="black" stroke="black" points="150.901,-217.588 149.576,-228.099 157.167,-220.709 150.901,-217.588"/>
</g>
<!-- 2602785972972244883 -->
<g id="node2" class="node"><title>2602785972972244883</title>
<ellipse fill="none" stroke="black" cx="189.006" cy="-57.0057" rx="57.0114" ry="57.0114"/>
<text text-anchor="middle" x="189.006" y="-52.8057" font-family="Times,serif" font-size="14.00">load_data(...)</text>
</g>
<!-- 2602785972972244883&#45;&gt;8302839576455506704 -->
<g id="edge1" class="edge"><title>2602785972972244883&#45;&gt;8302839576455506704</title>
<path fill="none" stroke="black" d="M183.889,-113.786C183.056,-122.861 182.228,-131.889 181.496,-139.862"/>
<polygon fill="black" stroke="black" points="177.996,-139.709 180.568,-149.987 184.967,-140.348 177.996,-139.709"/>
</g>
<!-- 1301405446878381891 -->
<g id="node3" class="node"><title>1301405446878381891</title>
<polygon fill="lightgreen" stroke="lightgreen" points="167.568,-414.88 78.4432,-414.88 78.4432,-378.88 167.568,-378.88 167.568,-414.88"/>
<text text-anchor="middle" x="123.006" y="-392.68" font-family="Times,serif" font-size="14.00">cleaned_data</text>
</g>
<!-- 815111752718623053 -->
<g id="node8" class="node"><title>815111752718623053</title>
<ellipse fill="none" stroke="black" cx="123.006" cy="-507.139" rx="56.0183" ry="56.0183"/>
<text text-anchor="middle" x="123.006" y="-502.939" font-family="Times,serif" font-size="14.00">analyze_data</text>
</g>
<!-- 1301405446878381891&#45;&gt;815111752718623053 -->
<g id="edge7" class="edge"><title>1301405446878381891&#45;&gt;815111752718623053</title>
<path fill="none" stroke="black" d="M123.006,-415.274C123.006,-422.472 123.006,-431.312 123.006,-440.622"/>
<polygon fill="black" stroke="black" points="119.506,-440.855 123.006,-450.855 126.506,-440.855 119.506,-440.855"/>
</g>
<!-- &#45;6511657930570053112&#45;&gt;1301405446878381891 -->
<g id="edge2" class="edge"><title>&#45;6511657930570053112&#45;&gt;1301405446878381891</title>
<path fill="none" stroke="black" d="M123.006,-342.955C123.006,-351.834 123.006,-360.603 123.006,-368.372"/>
<polygon fill="black" stroke="black" points="119.506,-368.597 123.006,-378.597 126.506,-368.597 119.506,-368.597"/>
</g>
<!-- 8302839576455506707 -->
<g id="node5" class="node"><title>8302839576455506707</title>
<polygon fill="none" stroke="black" points="103.538,-186.011 30.473,-186.011 30.473,-150.011 103.538,-150.011 103.538,-186.011"/>
<text text-anchor="middle" x="67.0057" y="-163.811" font-family="Times,serif" font-size="14.00">key_data2</text>
</g>
<!-- 8302839576455506707&#45;&gt;&#45;6511657930570053112 -->
<g id="edge4" class="edge"><title>8302839576455506707&#45;&gt;&#45;6511657930570053112</title>
<path fill="none" stroke="black" d="M75.5109,-186.088C79.9972,-195.095 85.8091,-206.764 91.8194,-218.831"/>
<polygon fill="black" stroke="black" points="88.8443,-220.709 96.4356,-228.099 95.1101,-217.588 88.8443,-220.709"/>
</g>
<!-- 2602786946457749208 -->
<g id="node6" class="node"><title>2602786946457749208</title>
<ellipse fill="none" stroke="black" cx="57.0057" cy="-57.0057" rx="57.0114" ry="57.0114"/>
<text text-anchor="middle" x="57.0057" y="-52.8057" font-family="Times,serif" font-size="14.00">load_data(...)</text>
</g>
<!-- 2602786946457749208&#45;&gt;8302839576455506707 -->
<g id="edge5" class="edge"><title>2602786946457749208&#45;&gt;8302839576455506707</title>
<path fill="none" stroke="black" d="M62.1229,-113.786C62.9554,-122.861 63.7836,-131.889 64.5151,-139.862"/>
<polygon fill="black" stroke="black" points="61.0449,-140.348 65.4439,-149.987 68.0156,-139.709 61.0449,-140.348"/>
</g>
<!-- 3744049138014996422 -->
<g id="node7" class="node"><title>3744049138014996422</title>
<polygon fill="none" stroke="black" points="176.731,-635.397 69.2807,-635.397 69.2807,-599.397 176.731,-599.397 176.731,-635.397"/>
<text text-anchor="middle" x="123.006" y="-613.197" font-family="Times,serif" font-size="14.00">analyze_data&#45;#0</text>
</g>
<!-- 815111752718623053&#45;&gt;3744049138014996422 -->
<g id="edge6" class="edge"><title>815111752718623053&#45;&gt;3744049138014996422</title>
<path fill="none" stroke="black" d="M123.006,-563.536C123.006,-572.305 123.006,-581.03 123.006,-588.789"/>
<polygon fill="black" stroke="black" points="119.506,-589.019 123.006,-599.019 126.506,-589.019 119.506,-589.019"/>
</g>
</g>
</svg>
